HIERARCHY
ROOT mixamorig:Hips
{
	OFFSET 0.000000 201.639420 0.000000
	CHANNELS 6 Xposition Yposition Zposition Xrotation Yrotation Zrotation
	JOINT mixamorig:Spine
	{
		OFFSET 0.006200 19.524994 -2.481800
		CHANNELS 3 Xrotation Yrotation Zrotation
		JOINT mixamorig:Spine1
		{
			OFFSET -0.000900 22.835007 -2.825400
			CHANNELS 3 Xrotation Yrotation Zrotation
			JOINT mixamorig:Spine2
			{
				OFFSET -0.020600 26.552490 -3.193300
				CHANNELS 3 Xrotation Yrotation Zrotation
				JOINT mixamorig:Neck
				{
					OFFSET -0.060000 30.701813 1.352200
					CHANNELS 3 Xrotation Yrotation Zrotation
					JOINT mixamorig:Head
					{
						OFFSET -0.087200 22.547607 3.670900
						CHANNELS 3 Xrotation Yrotation Zrotation
						JOINT mixamorig:HeadTop_End
						{
							OFFSET -0.830600 40.355194 7.893500
							CHANNELS 3 Xrotation Yrotation Zrotation
							End Site
							{
								OFFSET 0.000000 30.592346 0.000000
							}
						}
						JOINT mixamorig:RightEye
						{
							OFFSET -6.302100 18.118591 16.197100
							CHANNELS 3 Xrotation Yrotation Zrotation
							End Site
							{
								OFFSET 0.000000 30.592346 0.000000
							}
						}
						JOINT mixamorig:LeftEye
						{
							OFFSET 6.741500 18.382690 16.401899
							CHANNELS 3 Xrotation Yrotation Zrotation
							End Site
							{
								OFFSET 0.000000 30.592346 0.000000
							}
						}
					}
				}
				JOINT mixamorig:LeftShoulder
				{
					OFFSET 11.924900 18.230499 1.425400
					CHANNELS 3 Xrotation Yrotation Zrotation
					JOINT mixamorig:LeftArm
					{
						OFFSET 25.435989 -0.697632 -5.229300
						CHANNELS 3 Xrotation Yrotation Zrotation
						JOINT mixamorig:LeftForeArm
						{
							OFFSET 54.684776 0.000000 0.000000
							CHANNELS 3 Xrotation Yrotation Zrotation
							JOINT mixamorig:LeftHand
							{
								OFFSET 55.098175 0.000000 0.000000
								CHANNELS 3 Xrotation Yrotation Zrotation
								JOINT mixamorig:LeftHandMiddle1
								{
									OFFSET 23.369751 0.000000 0.000000
									CHANNELS 3 Xrotation Yrotation Zrotation
									JOINT mixamorig:LeftHandMiddle2
									{
										OFFSET 6.378677 0.000000 0.000000
										CHANNELS 3 Xrotation Yrotation Zrotation
										JOINT mixamorig:LeftHandMiddle3
										{
											OFFSET 6.148331 0.000000 0.000000
											CHANNELS 3 Xrotation Yrotation Zrotation
											JOINT mixamorig:LeftHandMiddle4
											{
												OFFSET 6.582504 0.000000 0.000000
												CHANNELS 3 Xrotation Yrotation Zrotation
												End Site
												{
													OFFSET -1.168900 6.395691 1.028606
												}
											}
										}
									}
								}
								JOINT mixamorig:LeftHandThumb1
								{
									OFFSET 7.235672 -3.848206 5.434273
									CHANNELS 3 Xrotation Yrotation Zrotation
									JOINT mixamorig:LeftHandThumb2
									{
										OFFSET 6.568451 -3.792297 3.792300
										CHANNELS 3 Xrotation Yrotation Zrotation
										JOINT mixamorig:LeftHandThumb3
										{
											OFFSET 6.063080 -3.500519 3.500518
											CHANNELS 3 Xrotation Yrotation Zrotation
											JOINT mixamorig:LeftHandThumb4
											{
												OFFSET 4.793182 -2.767334 2.767349
												CHANNELS 3 Xrotation Yrotation Zrotation
												End Site
												{
													OFFSET 0.101639 6.054260 1.275483
												}
											}
										}
									}
								}
								JOINT mixamorig:LeftHandIndex1
								{
									OFFSET 23.101074 -0.309540 4.992809
									CHANNELS 3 Xrotation Yrotation Zrotation
									JOINT mixamorig:LeftHandIndex2
									{
										OFFSET 6.226883 0.000000 0.000000
										CHANNELS 3 Xrotation Yrotation Zrotation
										JOINT mixamorig:LeftHandIndex3
										{
											OFFSET 6.094330 0.000000 0.000000
											CHANNELS 3 Xrotation Yrotation Zrotation
											JOINT mixamorig:LeftHandIndex4
											{
												OFFSET 5.482605 0.000000 0.000000
												CHANNELS 3 Xrotation Yrotation Zrotation
												End Site
												{
													OFFSET -1.427902 5.233032 0.797164
												}
											}
										}
									}
								}
								JOINT mixamorig:LeftHandRing1
								{
									OFFSET 22.299240 0.021149 -3.964172
									CHANNELS 3 Xrotation Yrotation Zrotation
									JOINT mixamorig:LeftHandRing2
									{
										OFFSET 6.321869 0.000000 0.000000
										CHANNELS 3 Xrotation Yrotation Zrotation
										JOINT mixamorig:LeftHandRing3
										{
											OFFSET 5.899796 0.000000 0.000000
											CHANNELS 3 Xrotation Yrotation Zrotation
											JOINT mixamorig:LeftHandRing4
											{
												OFFSET 6.517899 0.000000 0.000000
												CHANNELS 3 Xrotation Yrotation Zrotation
												End Site
												{
													OFFSET -1.637299 6.232208 0.980890
												}
											}
										}
									}
								}
								JOINT mixamorig:LeftHandPinky1
								{
									OFFSET 20.463791 -0.302338 -8.562233
									CHANNELS 3 Xrotation Yrotation Zrotation
									JOINT mixamorig:LeftHandPinky2
									{
										OFFSET 6.908646 0.000000 0.000000
										CHANNELS 3 Xrotation Yrotation Zrotation
										JOINT mixamorig:LeftHandPinky3
										{
											OFFSET 4.622849 0.000000 0.000000
											CHANNELS 3 Xrotation Yrotation Zrotation
											JOINT mixamorig:LeftHandPinky4
											{
												OFFSET 5.216080 0.000000 0.000000
												CHANNELS 3 Xrotation Yrotation Zrotation
												End Site
												{
													OFFSET -0.606308 5.116241 0.814926
												}
											}
										}
									}
								}
							}
						}
					}
				}
				JOINT mixamorig:RightShoulder
				{
					OFFSET -12.001300 18.284088 1.348900
					CHANNELS 3 Xrotation Yrotation Zrotation
					JOINT mixamorig:RightArm
					{
						OFFSET -25.308500 -0.751312 -5.164599
						CHANNELS 3 Xrotation Yrotation Zrotation
						JOINT mixamorig:RightForeArm
						{
							OFFSET -54.684429 0.000000 0.000000
							CHANNELS 3 Xrotation Yrotation Zrotation
							JOINT mixamorig:RightHand
							{
								OFFSET -55.150291 0.000000 0.000000
								CHANNELS 3 Xrotation Yrotation Zrotation
								JOINT mixamorig:RightHandMiddle1
								{
									OFFSET -23.317566 0.000000 0.000000
									CHANNELS 3 Xrotation Yrotation Zrotation
									JOINT mixamorig:RightHandMiddle2
									{
										OFFSET -6.378403 0.000000 0.000000
										CHANNELS 3 Xrotation Yrotation Zrotation
										JOINT mixamorig:RightHandMiddle3
										{
											OFFSET -6.148193 0.000000 0.000000
											CHANNELS 3 Xrotation Yrotation Zrotation
											JOINT mixamorig:RightHandMiddle4
											{
												OFFSET -6.583389 0.000000 0.000000
												CHANNELS 3 Xrotation Yrotation Zrotation
												End Site
												{
													OFFSET 1.171692 6.395905 1.029786
												}
											}
										}
									}
								}
								JOINT mixamorig:RightHandThumb1
								{
									OFFSET -7.190521 -3.860474 5.435846
									CHANNELS 3 Xrotation Yrotation Zrotation
									JOINT mixamorig:RightHandThumb2
									{
										OFFSET -6.567429 -3.791718 3.791708
										CHANNELS 3 Xrotation Yrotation Zrotation
										JOINT mixamorig:RightHandThumb3
										{
											OFFSET -6.062469 -3.500153 3.500166
											CHANNELS 3 Xrotation Yrotation Zrotation
											JOINT mixamorig:RightHandThumb4
											{
												OFFSET -4.792618 -2.767029 2.767022
												CHANNELS 3 Xrotation Yrotation Zrotation
												End Site
												{
													OFFSET -0.100327 6.053253 1.276754
												}
											}
										}
									}
								}
								JOINT mixamorig:RightHandIndex1
								{
									OFFSET -23.048981 -0.310791 4.992554
									CHANNELS 3 Xrotation Yrotation Zrotation
									JOINT mixamorig:RightHandIndex2
									{
										OFFSET -6.227539 0.000000 0.000000
										CHANNELS 3 Xrotation Yrotation Zrotation
										JOINT mixamorig:RightHandIndex3
										{
											OFFSET -6.095047 0.000000 0.000000
											CHANNELS 3 Xrotation Yrotation Zrotation
											JOINT mixamorig:RightHandIndex4
											{
												OFFSET -5.484772 0.000000 0.000000
												CHANNELS 3 Xrotation Yrotation Zrotation
												End Site
												{
													OFFSET 1.420593 5.237305 0.797056
												}
											}
										}
									}
								}
								JOINT mixamorig:RightHandRing1
								{
									OFFSET -22.246323 0.020569 -3.963762
									CHANNELS 3 Xrotation Yrotation Zrotation
									JOINT mixamorig:RightHandRing2
									{
										OFFSET -6.322128 0.000000 0.000000
										CHANNELS 3 Xrotation Yrotation Zrotation
										JOINT mixamorig:RightHandRing3
										{
											OFFSET -5.900024 0.000000 0.000000
											CHANNELS 3 Xrotation Yrotation Zrotation
											JOINT mixamorig:RightHandRing4
											{
												OFFSET -6.518356 0.000000 0.000000
												CHANNELS 3 Xrotation Yrotation Zrotation
												End Site
												{
													OFFSET 1.636398 6.232697 0.982186
												}
											}
										}
									}
								}
								JOINT mixamorig:RightHandPinky1
								{
									OFFSET -20.411011 -0.303314 -8.561701
									CHANNELS 3 Xrotation Yrotation Zrotation
									JOINT mixamorig:RightHandPinky2
									{
										OFFSET -6.907349 0.000000 0.000000
										CHANNELS 3 Xrotation Yrotation Zrotation
										JOINT mixamorig:RightHandPinky3
										{
											OFFSET -4.623840 0.000000 0.000000
											CHANNELS 3 Xrotation Yrotation Zrotation
											JOINT mixamorig:RightHandPinky4
											{
												OFFSET -5.218353 0.000000 0.000000
												CHANNELS 3 Xrotation Yrotation Zrotation
												End Site
												{
													OFFSET 0.602097 5.118835 0.816273
												}
											}
										}
									}
								}
							}
						}
					}
				}
			}
		}
	}
	JOINT mixamorig:LeftUpLeg
	{
		OFFSET 18.168400 -13.561905 -0.039000
		CHANNELS 3 Xrotation Yrotation Zrotation
		JOINT mixamorig:LeftLeg
		{
			OFFSET 0.577358 -80.825211 -3.695000
			CHANNELS 3 Xrotation Yrotation Zrotation
			JOINT mixamorig:LeftFoot
			{
				OFFSET -0.577356 -83.370262 -6.520700
				CHANNELS 3 Xrotation Yrotation Zrotation
				JOINT mixamorig:LeftToeBase
				{
					OFFSET 0.750401 -20.798306 25.135401
					CHANNELS 3 Xrotation Yrotation Zrotation
					JOINT mixamorig:LeftToe_End
					{
						OFFSET -0.000500 0.001200 19.917799
						CHANNELS 3 Xrotation Yrotation Zrotation
						End Site
						{
							OFFSET 0.000000 19.917805 0.000000
						}
					}
				}
			}
		}
	}
	JOINT mixamorig:RightUpLeg
	{
		OFFSET -18.162500 -13.585098 -0.041000
		CHANNELS 3 Xrotation Yrotation Zrotation
		JOINT mixamorig:RightLeg
		{
			OFFSET -0.595024 -80.945297 -3.631900
			CHANNELS 3 Xrotation Yrotation Zrotation
			JOINT mixamorig:RightFoot
			{
				OFFSET 0.595024 -83.218193 -6.561200
				CHANNELS 3 Xrotation Yrotation Zrotation
				JOINT mixamorig:RightToeBase
				{
					OFFSET -0.753601 -20.807106 25.115000
					CHANNELS 3 Xrotation Yrotation Zrotation
					JOINT mixamorig:RightToe_End
					{
						OFFSET 0.000299 0.001700 19.918200
						CHANNELS 3 Xrotation Yrotation Zrotation
						End Site
						{
							OFFSET 0.000000 19.918203 0.000000
						}
					}
				}
			}
		}
	}
}
MOTION
Frames: 4
Frame Time: 0.033333
-0.073558 200.948532 -0.588864 2.828135 -5.510659 -1.386279 -0.410213 -1.027599 1.239904 -1.124193 -0.763622 0.960462 -1.125714 -0.723788 0.985440 -4.895964 1.540609 -0.449522 -0.934612 6.880853 -0.774390 -0.000000 0.000000 -0.000000 -0.000000 0.000000 -0.000000 -0.000000 0.000000 -0.000000 -1.469254 10.517226 -4.984827 43.879652 -68.213707 -24.791775 -0.000001 -21.268091 0.000005 -25.251730 7.009056 0.097477 0.379669 2.258998 -19.079146 0.158859 1.473390 -12.306088 0.039719 0.739995 -6.144026 -0.000001 -0.000002 0.000000 -3.405767 19.076286 14.453252 15.249451 14.620672 -5.800667 4.892163 5.223027 0.075631 0.000002 0.000003 0.000002 0.380316 2.260832 -19.095156 0.158437 1.471503 -12.290084 0.039713 0.739982 -6.144041 -0.000002 0.000001 -0.000001 0.380315 2.260824 -19.095172 0.158429 1.471509 -12.290089 0.039710 0.740001 -6.144019 -0.000002 -0.000001 0.000001 1.696013 6.096987 -18.680653 0.153586 -2.584216 -12.789190 0.039702 0.740003 -6.144014 -0.000001 -0.000001 0.000002 3.669363 5.665987 1.464134 -1.701523 36.578661 65.584959 0.000007 22.959761 -0.000008 -19.091374 -11.054790 9.870840 0.194546 -1.636471 13.558130 0.162597 -1.497881 12.390194 0.040755 -0.753338 6.194040 -0.000004 0.000000 -0.000000 1.944095 -20.994847 -11.060285 4.637200 -8.634128 -0.225400 -1.273768 0.137312 -2.094870 0.000001 0.000000 0.000002 0.194544 -1.636467 13.558144 0.162601 -1.497882 12.390169 0.040759 -0.753338 6.194041 0.000003 -0.000001 -0.000002 0.194540 -1.636476 13.558137 0.162602 -1.497876 12.390194 0.040761 -0.753341 6.194025 -0.000001 0.000001 -0.000002 0.194546 -1.636468 13.558130 0.162593 -1.497876 12.390188 0.040760 -0.753339 6.194040 0.000000 0.000003 0.000002 -19.376354 16.502587 11.567647 17.424439 10.007097 4.660083 -0.627522 2.874726 -9.860520 -0.000003 -0.000010 -0.000001 0.000000 -0.000000 0.000000 -16.746335 -21.067085 -5.689784 17.927204 9.844286 -2.997681 -4.724607 1.128617 4.335741 -0.000002 -0.000005 -0.000002 0.000000 -0.000002 0.000000 
0.017365 200.945343 -0.623409 2.786011 -5.432523 -1.332381 -0.424710 -1.105038 1.228985 -1.138059 -0.823175 0.951546 -1.139464 -0.783834 0.978479 -4.937412 1.583470 -0.410841 -0.868657 7.151225 -0.837297 0.000000 -0.000000 0.000000 0.000000 -0.000000 0.000000 0.000000 -0.000000 0.000000 -1.471633 10.508808 -4.947000 43.434047 -68.282788 -25.361227 0.000001 -21.329820 -0.000000 -25.464181 7.138923 0.050696 0.379679 2.258997 -19.079152 0.158855 1.473390 -12.306088 0.039716 0.739997 -6.144025 0.000002 -0.000001 0.000000 -3.405767 19.076288 14.453251 15.249447 14.620676 -5.800670 4.892160 5.223022 0.075629 0.000002 0.000003 0.000002 0.380316 2.260833 -19.095158 0.158436 1.471502 -12.290084 0.039719 0.739983 -6.144039 0.000001 0.000001 -0.000002 0.380312 2.260823 -19.095170 0.158432 1.471508 -12.290089 0.039714 0.740001 -6.144018 -0.000001 -0.000001 -0.000000 1.696012 6.096986 -18.680651 0.153588 -2.584218 -12.789193 0.039701 0.740002 -6.144013 0.000000 -0.000001 -0.000000 3.663071 5.650980 1.476500 -1.717058 36.858050 65.610162 -0.000028 22.843436 0.000031 -18.753749 -10.781615 10.388758 0.194545 -1.636473 13.558114 0.162594 -1.497892 12.390199 0.040771 -0.753331 6.194030 0.000002 0.000000 0.000002 2.003668 -20.944702 -10.975517 4.637198 -8.634128 -0.225391 -1.273758 0.137311 -2.094875 -0.000003 0.000001 0.000002 0.194543 -1.636471 13.558118 0.162594 -1.497879 12.390206 0.040768 -0.753338 6.194021 -0.000000 0.000001 0.000001 0.194542 -1.636476 13.558118 0.162591 -1.497887 12.390197 0.040766 -0.753332 6.194028 0.000002 0.000000 0.000001 0.194550 -1.636472 13.558111 0.162591 -1.497880 12.390202 0.040763 -0.753337 6.194033 -0.000001 0.000001 0.000002 -19.332229 16.506057 11.504740 17.441537 9.996883 4.577884 -0.641891 2.823838 -9.776398 -0.000003 -0.000009 -0.000001 -0.000000 0.000000 -0.000000 -16.788747 -21.115622 -5.835954 17.995168 9.842738 -2.977589 -4.746503 1.143786 4.350443 0.000001 -0.000002 -0.000000 -0.000000 -0.000002 -0.000000 
0.144412 200.931625 -0.656236 2.776667 -5.394607 -1.223697 -0.413557 -1.164806 1.200623 -1.131497 -0.870106 0.928266 -1.132633 -0.832091 0.956607 -5.036379 1.635014 -0.389024 -0.899763 7.439127 -0.926529 -0.000000 0.000000 0.000000 -0.000000 0.000000 0.000000 -0.000000 0.000000 0.000000 -1.473685 10.490796 -4.888346 43.140062 -68.427547 -25.719837 0.000010 -21.393454 0.000020 -25.716912 7.247440 -0.089357 0.379674 2.258996 -19.079150 0.158856 1.473392 -12.306088 0.039718 0.739994 -6.144024 -0.000004 0.000000 0.000002 -3.405771 19.076285 14.453256 15.249446 14.620670 -5.800674 4.892161 5.223024 0.075630 0.000001 0.000002 0.000001 0.380316 2.260833 -19.095156 0.158434 1.471501 -12.290085 0.039722 0.739985 -6.144039 0.000002 -0.000001 -0.000002 0.380310 2.260825 -19.095174 0.158436 1.471508 -12.290089 0.039717 0.740002 -6.144020 -0.000002 -0.000001 0.000001 1.696009 6.096985 -18.680648 0.153596 -2.584216 -12.789191 0.039703 0.740003 -6.144017 -0.000002 0.000001 0.000001 3.664878 5.654272 1.451540 -1.795804 37.332165 65.624990 -0.000010 22.590448 0.000000 -18.081587 -10.579455 10.987466 0.194545 -1.636465 13.558118 0.162608 -1.497890 12.390165 0.040766 -0.753329 6.194056 -0.000001 0.000000 0.000002 2.174328 -20.799726 -10.732758 4.637203 -8.634133 -0.225408 -1.273757 0.137320 -2.094876 0.000002 0.000001 0.000001 0.194551 -1.636461 13.558115 0.162607 -1.497880 12.390166 0.040758 -0.753332 6.194055 0.000001 -0.000002 0.000000 0.194549 -1.636463 13.558127 0.162602 -1.497883 12.390169 0.040760 -0.753329 6.194055 0.000001 0.000001 0.000003 0.194552 -1.636457 13.558122 0.162599 -1.497889 12.390169 0.040764 -0.753339 6.194039 -0.000004 0.000002 0.000004 -19.304570 16.582487 11.367703 17.445246 9.987524 4.540160 -0.660281 2.762610 -9.698243 -0.000003 -0.000010 -0.000001 0.000000 0.000000 0.000000 -16.948530 -21.120851 -6.066108 18.157800 9.840499 -2.954141 -4.802075 1.174956 4.369884 0.000001 0.000001 -0.000000 -0.000000 0.000001 0.000000 
0.351696 200.896225 -0.686755 2.827646 -5.454338 -1.022343 -0.362474 -1.184946 1.144644 -1.093441 -0.887717 0.881950 -1.094181 -0.852277 0.910613 -5.245046 1.684844 -0.397477 -1.100409 7.672463 -1.045066 0.000000 0.000000 -0.000000 0.000000 0.000000 -0.000000 0.000000 0.000000 -0.000000 -1.474094 10.445236 -4.782912 43.026141 -68.718718 -25.781637 -0.000005 -21.419620 -0.000018 -25.980542 7.330053 -0.408863 0.379674 2.258996 -19.079150 0.158851 1.473391 -12.306090 0.039716 0.739997 -6.144025 0.000002 0.000000 0.000001 -3.405768 19.076285 14.453256 15.249453 14.620674 -5.800667 4.892159 5.223030 0.075633 0.000000 0.000004 0.000002 0.380315 2.260831 -19.095158 0.158437 1.471502 -12.290086 0.039724 0.739987 -6.144041 -0.000001 0.000001 -0.000001 0.380311 2.260823 -19.095174 0.158429 1.471507 -12.290087 0.039716 0.740002 -6.144019 -0.000002 -0.000001 0.000002 1.696007 6.096985 -18.680653 0.153587 -2.584216 -12.789191 0.039703 0.740001 -6.144017 -0.000001 -0.000001 0.000002 3.678482 5.686460 1.405365 -2.006473 38.055485 65.583442 -0.000002 22.086076 0.000023 -17.047116 -10.437828 11.565645 0.194544 -1.636466 13.558083 0.162602 -1.497881 12.390182 0.040759 -0.753339 6.194015 -0.000002 -0.000002 -0.000000 2.443988 -20.566705 -10.349635 4.637193 -8.634129 -0.225418 -1.273761 0.137315 -2.094853 -0.000002 0.000001 -0.000000 0.194548 -1.636463 13.558098 0.162598 -1.497874 12.390179 0.040763 -0.753341 6.194019 -0.000002 -0.000001 -0.000001 0.194547 -1.636467 13.558095 0.162595 -1.497882 12.390166 0.040763 -0.753332 6.194036 0.000000 0.000002 -0.000000 0.194550 -1.636464 13.558082 0.162604 -1.497878 12.390187 0.040768 -0.753337 6.194024 -0.000002 -0.000001 -0.000001 -19.329570 16.833887 11.114131 17.453266 9.980079 4.588062 -0.703822 2.673726 -9.629161 -0.000003 -0.000008 -0.000001 0.000000 0.000000 -0.000000 -17.308307 -20.962931 -6.426197 18.482036 9.836469 -2.912326 -4.909944 1.181761 4.396827 0.000000 -0.000007 0.000002 -0.000000 -0.000002 0.000000 
